<svg preserveAspectRatio="none" width="100%" height="100%" overflow="visible" style="display: block;" viewBox="0 0 19 18" fill="none" xmlns="http://www.w3.org/2000/svg">
<path id="Vector" d="M5.74971 8.25V4.08333C5.74971 3.19928 6.1009 2.35143 6.72602 1.72631C7.35115 1.10119 8.19899 0.75 9.08305 0.75C9.9671 0.75 10.8149 1.10119 11.4401 1.72631C12.0652 2.35143 12.4164 3.19928 12.4164 4.08333V8.25M0.789714 14.555C0.735559 14.7986 0.736804 15.0513 0.793359 15.2944C0.849914 15.5374 0.960335 15.7647 1.11647 15.9594C1.27261 16.1541 1.47047 16.3112 1.69546 16.4192C1.92045 16.5272 2.16682 16.5833 2.41638 16.5833H15.7497C15.9993 16.5833 16.2456 16.5272 16.4706 16.4192C16.6956 16.3112 16.8935 16.1541 17.0496 15.9594C17.2058 15.7647 17.3162 15.5374 17.3727 15.2944C17.4293 15.0513 17.4305 14.7986 17.3764 14.555L15.7097 7.055C15.6274 6.68489 15.4214 6.3539 15.1257 6.11665C14.83 5.8794 14.4622 5.75006 14.083 5.75H4.08305C3.70391 5.75006 3.33612 5.8794 3.04039 6.11665C2.74466 6.3539 2.53865 6.68489 2.45638 7.055L0.789714 14.555Z" stroke="var(--stroke-0, white)" stroke-width="1.5" stroke-linecap="round" stroke-linejoin="round"/>
</svg>
