<svg preserveAspectRatio="none" width="100%" height="100%" overflow="visible" style="display: block;" viewBox="0 0 161 50" fill="none" xmlns="http://www.w3.org/2000/svg">
<path id="Vector 30" d="M7.94729e-08 46.6667C7.94729e-08 48.1394 1.19391 49.3333 2.66667 49.3333C4.13943 49.3333 5.33333 48.1394 5.33333 46.6667C5.33333 45.1939 4.13943 44 2.66667 44C1.19391 44 7.94729e-08 45.1939 7.94729e-08 46.6667ZM155 2.66667C155 4.13943 156.194 5.33333 157.667 5.33333C159.139 5.33333 160.333 4.13943 160.333 2.66667C160.333 1.19391 159.139 7.94729e-08 157.667 7.94729e-08C156.194 7.94729e-08 155 1.19391 155 2.66667ZM2.66667 46.6667L2.80321 47.1477L157.803 3.14766L157.667 2.66667L157.53 2.18567L2.53013 46.1857L2.66667 46.6667Z" fill="var(--stroke-0, black)"/>
</svg>
