<svg preserveAspectRatio="none" width="100%" height="100%" overflow="visible" style="display: block;" viewBox="0 0 179 59" fill="none" xmlns="http://www.w3.org/2000/svg">
<path id="Vector 30" d="M7.94729e-08 55.6667C7.94729e-08 57.1394 1.19391 58.3333 2.66667 58.3333C4.13943 58.3333 5.33333 57.1394 5.33333 55.6667C5.33333 54.1939 4.13943 53 2.66667 53C1.19391 53 7.94729e-08 54.1939 7.94729e-08 55.6667ZM173 2.66667C173 4.13943 174.194 5.33333 175.667 5.33333C177.139 5.33333 178.333 4.13943 178.333 2.66667C178.333 1.19391 177.139 7.94729e-08 175.667 7.94729e-08C174.194 7.94729e-08 173 1.19391 173 2.66667ZM2.66667 55.6667L2.81313 56.1447L175.813 3.14474L175.667 2.66667L175.52 2.1886L2.52021 55.1886L2.66667 55.6667Z" fill="var(--stroke-0, black)"/>
</svg>
