<svg preserveAspectRatio="none" width="100%" height="100%" overflow="visible" style="display: block;" viewBox="0 0 19 15" fill="none" xmlns="http://www.w3.org/2000/svg">
<path id="Vector" d="M17.4167 4.91832L12.4167 9.91832M12.4167 4.91832L17.4167 9.91832M8.25 1.33665C8.24983 1.22058 8.21529 1.10716 8.15072 1.0107C8.08615 0.914241 7.99446 0.83907 7.88721 0.794674C7.77996 0.750277 7.66197 0.738644 7.54812 0.761243C7.43427 0.783842 7.32966 0.839659 7.2475 0.921651L4.4275 3.74082C4.31867 3.8503 4.18919 3.93709 4.04658 3.99617C3.90396 4.05525 3.75104 4.08544 3.59667 4.08498H1.58333C1.36232 4.08498 1.15036 4.17278 0.994078 4.32906C0.837797 4.48534 0.75 4.6973 0.75 4.91832V9.91832C0.75 10.1393 0.837797 10.3513 0.994078 10.5076C1.15036 10.6639 1.36232 10.7517 1.58333 10.7517H3.59667C3.75104 10.7512 3.90396 10.7814 4.04658 10.8405C4.18919 10.8995 4.31867 10.9863 4.4275 11.0958L7.24667 13.9158C7.32883 13.9981 7.43359 14.0542 7.54766 14.077C7.66173 14.0997 7.77999 14.0881 7.88744 14.0435C7.99489 13.999 8.0867 13.9236 8.15125 13.8268C8.21579 13.73 8.25016 13.6163 8.25 13.5V1.33665Z" stroke="var(--stroke-0, white)" stroke-width="1.5" stroke-linecap="round" stroke-linejoin="round"/>
</svg>
