<svg preserveAspectRatio="none" width="100%" height="100%" overflow="visible" style="display: block;" viewBox="0 0 148 46" fill="none" xmlns="http://www.w3.org/2000/svg">
<path id="Vector 29" d="M7.94729e-08 42.6667C7.94729e-08 44.1394 1.19391 45.3333 2.66667 45.3333C4.13943 45.3333 5.33333 44.1394 5.33333 42.6667C5.33333 41.1939 4.13943 40 2.66667 40C1.19391 40 7.94729e-08 41.1939 7.94729e-08 42.6667ZM142 2.66667C142 4.13943 143.194 5.33333 144.667 5.33333C146.139 5.33333 147.333 4.13943 147.333 2.66667C147.333 1.19391 146.139 7.94729e-08 144.667 7.94729e-08C143.194 7.94729e-08 142 1.19391 142 2.66667ZM2.66667 42.6667L2.80224 43.1479L144.802 3.14794L144.667 2.66667L144.531 2.1854L2.5311 42.1854L2.66667 42.6667Z" fill="var(--stroke-0, black)"/>
</svg>
