<svg width="20" height="20" viewBox="0 0 20 20" fill="none" xmlns="http://www.w3.org/2000/svg">
<path d="M6.66671 9.16663V4.99996C6.66671 4.1159 7.0179 3.26806 7.64302 2.64294C8.26814 2.01782 9.11598 1.66663 10 1.66663C10.8841 1.66663 11.7319 2.01782 12.3571 2.64294C12.9822 3.26806 13.3334 4.1159 13.3334 4.99996V9.16663M1.70671 15.4716C1.65255 15.7152 1.6538 15.9679 1.71035 16.211C1.76691 16.4541 1.87733 16.6813 2.03346 16.876C2.1896 17.0707 2.38746 17.2278 2.61245 17.3358C2.83744 17.4438 3.08381 17.4999 3.33337 17.5H16.6667C16.9163 17.4999 17.1626 17.4438 17.3876 17.3358C17.6126 17.2278 17.8105 17.0707 17.9666 16.876C18.1228 16.6813 18.2332 16.4541 18.2897 16.211C18.3463 15.9679 18.3475 15.7152 18.2934 15.4716L16.6267 7.97163C16.5444 7.60152 16.3384 7.27053 16.0427 7.03328C15.747 6.79602 15.3792 6.66669 15 6.66663H5.00004C4.6209 6.66669 4.25311 6.79602 3.95738 7.03328C3.66165 7.27053 3.45565 7.60152 3.37337 7.97163L1.70671 15.4716Z" stroke="white" stroke-width="1.5" stroke-linecap="round" stroke-linejoin="round"/>
</svg>
