<svg width="70" height="16" viewBox="0 0 70 16" fill="none" xmlns="http://www.w3.org/2000/svg">
<path fill-rule="evenodd" clip-rule="evenodd" d="M0.0725596 0.184739C0.1125 0.284637 1.57345 3.87901 3.31912 8.17224L6.49304 15.9781L9.53245 15.9891L12.5719 16L15.8108 8.03391C17.5922 3.65251 19.0496 0.0534041 19.0494 0.0357876C19.0493 0.0181711 17.9145 0.0037963 16.5277 0.0037963H14.0062L13.9639 0.121098C13.9406 0.185635 12.9851 2.81732 11.8407 5.96928C10.6962 9.12127 9.7598 11.7078 9.7598 11.717C9.7598 11.7263 9.68759 11.7335 9.59927 11.733L9.43874 11.7321L7.27351 5.87864L5.10833 0.0251238L2.55414 0.0141188L0 0.00311382L0.0725596 0.184739ZM19.6485 8.00162V15.9994H26.669H33.6895V14.1013V12.2031H28.788H23.8865V11.0088V9.81446H28.6167H33.347V7.93764V6.06082H28.6167H23.8865V4.93046V3.8001H28.788H33.6895V1.90195V0.0037963H26.669H19.6485V8.00162ZM35.1022 7.99974V15.9994H37.1995H39.2967L39.3077 13.2375L39.3187 10.4756L40.6661 10.4643C42.23 10.4512 42.5939 10.4912 43.0859 10.73C43.7047 11.0304 43.8215 11.2063 45.138 13.8212L46.2346 15.9994H48.6521C50.3636 15.9994 51.0696 15.9859 51.0696 15.9531C51.0696 15.8964 49.18 12.1764 48.8533 11.59C48.5048 10.9644 48.0342 10.3637 47.7173 10.14C47.3755 9.89862 47.1745 9.79928 46.7209 9.64738C46.3041 9.50781 46.2553 9.47437 46.2936 9.3543C46.3148 9.28771 46.3733 9.26327 46.5654 9.24075C47.1458 9.1728 47.9109 8.9553 48.5151 8.68658C49.133 8.41171 49.7846 7.83693 50.1217 7.26911C50.7108 6.27703 50.8606 4.53709 50.4664 3.26443C50.0048 1.77398 48.7098 0.70688 46.8197 0.259556C45.834 0.0263182 45.9749 0.0316074 40.3354 0.0152279L35.1022 0V7.99974ZM50.9566 0.036854C50.9678 0.055025 52.4253 3.63003 54.1954 7.98136C55.9654 12.3326 57.4235 15.9169 57.4355 15.9464C57.4528 15.9889 58.0882 15.9977 60.4952 15.9891L63.5332 15.9781L66.7423 8.08693C68.5073 3.74678 69.9623 0.152577 69.9757 0.0997702L70 0.0037963H67.4785H64.957L62.8326 5.8582L60.7081 11.7126H60.5493H60.3904L58.2235 5.85867L56.0567 0.00477737L53.4964 0.00426551C52.0882 0.00400958 50.9453 0.0186829 50.9566 0.036854ZM45.2905 3.90008C46.0138 4.13566 46.2515 4.54882 46.2515 5.57028C46.2515 6.63525 46.0083 7.00281 45.162 7.2169C44.9724 7.26493 44.3818 7.27648 42.1227 7.27648H39.3187L39.3075 5.5917C39.3014 4.66506 39.3059 3.88212 39.3176 3.85179C39.3347 3.80731 39.8907 3.79924 42.1969 3.81004C44.81 3.82224 45.0752 3.82996 45.2905 3.90008Z" fill="white"/>
</svg>
