<svg preserveAspectRatio="none" width="100%" height="100%" overflow="visible" style="display: block;" viewBox="0 0 22 18" fill="none" xmlns="http://www.w3.org/2000/svg">
<g id="Vector">
<path d="M13.25 0.75H8.25L5.75 3.75H2.75C2.21957 3.75 1.71086 3.96071 1.33579 4.33579C0.960714 4.71086 0.75 5.21957 0.75 5.75V14.75C0.75 15.2804 0.960714 15.7891 1.33579 16.1642C1.71086 16.5393 2.21957 16.75 2.75 16.75H18.75C19.2804 16.75 19.7891 16.5393 20.1642 16.1642C20.5393 15.7891 20.75 15.2804 20.75 14.75V5.75C20.75 5.21957 20.5393 4.71086 20.1642 4.33579C19.7891 3.96071 19.2804 3.75 18.75 3.75H15.75L13.25 0.75Z" stroke="var(--stroke-0, white)" stroke-width="1.5" stroke-linecap="round" stroke-linejoin="round"/>
<path d="M10.75 12.75C12.4069 12.75 13.75 11.4069 13.75 9.75C13.75 8.09315 12.4069 6.75 10.75 6.75C9.09315 6.75 7.75 8.09315 7.75 9.75C7.75 11.4069 9.09315 12.75 10.75 12.75Z" stroke="var(--stroke-0, white)" stroke-width="1.5" stroke-linecap="round" stroke-linejoin="round"/>
</g>
</svg>
