<svg preserveAspectRatio="none" width="100%" height="100%" overflow="visible" style="display: block;" viewBox="0 0 274 189" fill="none" xmlns="http://www.w3.org/2000/svg">
<path id="Vector 28" d="M7.94729e-08 185.667C7.94729e-08 187.139 1.19391 188.333 2.66667 188.333C4.13943 188.333 5.33333 187.139 5.33333 185.667C5.33333 184.194 4.13943 183 2.66667 183C1.19391 183 7.94729e-08 184.194 7.94729e-08 185.667ZM268 2.66667C268 4.13943 269.194 5.33333 270.667 5.33333C272.139 5.33333 273.333 4.13943 273.333 2.66667C273.333 1.19391 272.139 7.94729e-08 270.667 7.94729e-08C269.194 7.94729e-08 268 1.19391 268 2.66667ZM2.66667 185.667L2.94862 186.08L270.949 3.07958L270.667 2.66667L270.385 2.25375L2.38471 185.254L2.66667 185.667Z" fill="var(--stroke-0, black)"/>
</svg>
