<svg preserveAspectRatio="none" width="100%" height="100%" overflow="visible" style="display: block;" viewBox="0 0 20 20" fill="none" xmlns="http://www.w3.org/2000/svg">
<path id="Vector" d="M4.75 18.75C5.81087 18.75 6.82828 18.3286 7.57843 17.5784C8.32857 16.8283 8.75 15.8109 8.75 14.75V2.75C8.75 2.21957 8.53929 1.71086 8.16421 1.33579C7.78914 0.960714 7.28043 0.75 6.75 0.75H2.75C2.21957 0.75 1.71086 0.960714 1.33579 1.33579C0.960714 1.71086 0.75 2.21957 0.75 2.75V14.75C0.75 15.8109 1.17143 16.8283 1.92157 17.5784C2.67172 18.3286 3.68913 18.75 4.75 18.75ZM4.75 18.75H16.75C17.2804 18.75 17.7891 18.5393 18.1642 18.1642C18.5393 17.7891 18.75 17.2804 18.75 16.75V12.75C18.75 12.2196 18.5393 11.7109 18.1642 11.3358C17.7891 10.9607 17.2804 10.75 16.75 10.75H14.45M4.75 14.75H4.76M8.75 5.75L11.05 3.45C11.2733 3.22592 11.5387 3.04819 11.8309 2.92705C12.1232 2.8059 12.4365 2.74373 12.7528 2.7441C13.0692 2.74447 13.3823 2.80738 13.6743 2.92921C13.9662 3.05104 14.2312 3.22939 14.454 3.454L16.35 5.35C16.5806 5.57181 16.7645 5.83749 16.8909 6.13141C17.0174 6.42534 17.0837 6.74157 17.0862 7.06152C17.0886 7.38147 17.027 7.69868 16.905 7.99449C16.7831 8.29029 16.6032 8.55873 16.376 8.784L7.65 17.55" stroke="var(--stroke-0, white)" stroke-width="1.5" stroke-linecap="round" stroke-linejoin="round"/>
</svg>
