<svg preserveAspectRatio="none" width="100%" height="100%" overflow="visible" style="display: block;" viewBox="0 0 17 17" fill="none" xmlns="http://www.w3.org/2000/svg">
<path id="Vector" d="M8.25 4.91704V15.7504M8.25 4.91704C7.94856 3.67487 7.42954 2.61292 6.76061 1.86967C6.09169 1.12642 5.3039 0.736363 4.5 0.75037C3.94747 0.75037 3.41756 0.969863 3.02686 1.36056C2.63616 1.75126 2.41667 2.28117 2.41667 2.8337C2.41667 3.38624 2.63616 3.91614 3.02686 4.30684C3.41756 4.69754 3.94747 4.91704 4.5 4.91704M8.25 4.91704C8.55144 3.67487 9.07046 2.61292 9.73939 1.86967C10.4083 1.12642 11.1961 0.736363 12 0.75037C12.5525 0.75037 13.0824 0.969863 13.4731 1.36056C13.8638 1.75126 14.0833 2.28117 14.0833 2.8337C14.0833 3.38624 13.8638 3.91614 13.4731 4.30684C13.0824 4.69754 12.5525 4.91704 12 4.91704M14.0833 8.25037V14.0837C14.0833 14.5257 13.9077 14.9497 13.5952 15.2622C13.2826 15.5748 12.8587 15.7504 12.4167 15.7504H4.08333C3.64131 15.7504 3.21738 15.5748 2.90482 15.2622C2.59226 14.9497 2.41667 14.5257 2.41667 14.0837V8.25037M1.58333 4.91704H14.9167C15.3769 4.91704 15.75 5.29013 15.75 5.75037V7.41704C15.75 7.87727 15.3769 8.25037 14.9167 8.25037H1.58333C1.1231 8.25037 0.75 7.87727 0.75 7.41704V5.75037C0.75 5.29013 1.1231 4.91704 1.58333 4.91704Z" stroke="var(--stroke-0, #FF5ED6)" stroke-width="1.5" stroke-linecap="round" stroke-linejoin="round"/>
</svg>
