<svg preserveAspectRatio="none" width="100%" height="100%" overflow="visible" style="display: block;" viewBox="0 0 22 22" fill="none" xmlns="http://www.w3.org/2000/svg">
<g id="Vector">
<path d="M7.75 7.753C7.74946 7.57553 7.79617 7.40112 7.88531 7.24767C7.97445 7.09422 8.10283 6.96725 8.25726 6.8798C8.41169 6.79236 8.5866 6.74759 8.76405 6.75008C8.9415 6.75258 9.11509 6.80225 9.267 6.894L14.264 9.891C14.4128 9.97967 14.536 10.1054 14.6215 10.256C14.707 10.4066 14.752 10.5768 14.752 10.75C14.752 10.9232 14.707 11.0934 14.6215 11.244C14.536 11.3946 14.4128 11.5203 14.264 11.609L9.267 14.606C9.11502 14.6978 8.94134 14.7475 8.7638 14.7499C8.58627 14.7524 8.41128 14.7075 8.25682 14.62C8.10236 14.5324 7.974 14.4053 7.88493 14.2517C7.79586 14.0981 7.74929 13.9236 7.75 13.746V7.753Z" stroke="var(--stroke-0, white)" stroke-width="1.5" stroke-linecap="round" stroke-linejoin="round"/>
<path d="M10.75 20.75C16.2728 20.75 20.75 16.2728 20.75 10.75C20.75 5.22715 16.2728 0.75 10.75 0.75C5.22715 0.75 0.75 5.22715 0.75 10.75C0.75 16.2728 5.22715 20.75 10.75 20.75Z" stroke="var(--stroke-0, white)" stroke-width="1.5" stroke-linecap="round" stroke-linejoin="round"/>
</g>
</svg>
