<svg preserveAspectRatio="none" width="100%" height="100%" overflow="visible" style="display: block;" viewBox="0 0 243 156" fill="none" xmlns="http://www.w3.org/2000/svg">
<path id="Vector 28" d="M7.94729e-08 152.667C7.94729e-08 154.139 1.19391 155.333 2.66667 155.333C4.13943 155.333 5.33333 154.139 5.33333 152.667C5.33333 151.194 4.13943 150 2.66667 150C1.19391 150 7.94729e-08 151.194 7.94729e-08 152.667ZM237 2.66667C237 4.13943 238.194 5.33333 239.667 5.33333C241.139 5.33333 242.333 4.13943 242.333 2.66667C242.333 1.19391 241.139 7.94729e-08 239.667 7.94729e-08C238.194 7.94729e-08 237 1.19391 237 2.66667ZM2.66667 152.667L2.93407 153.089L239.934 3.08916L239.667 2.66667L239.399 2.24418L2.39927 152.244L2.66667 152.667Z" fill="var(--stroke-0, black)"/>
</svg>
