<svg preserveAspectRatio="none" width="100%" height="100%" overflow="visible" style="display: block;" viewBox="0 0 15 15" fill="none" xmlns="http://www.w3.org/2000/svg">
<g id="Vector">
<path d="M13.333 7.41699C13.333 4.14942 10.6845 1.50018 7.41699 1.5C4.14931 1.5 1.5 4.14931 1.5 7.41699C1.50018 10.6845 4.14942 13.333 7.41699 13.333C10.6844 13.3328 13.3328 10.6844 13.333 7.41699ZM14.833 7.41699C14.8328 11.5128 11.5128 14.8328 7.41699 14.833C3.32099 14.833 0.000175747 11.513 0 7.41699C0 3.32088 3.32088 0 7.41699 0C11.513 0.000175751 14.833 3.32099 14.833 7.41699Z" fill="var(--fill-0, white)"/>
<path d="M7.41803 3.11667L8.79733 5.54158L11.4176 6.17419L9.65035 8.30167L9.89003 11.1167L7.41782 10.0067L4.94636 11.1163L5.18585 8.30185L3.41764 6.17402L6.03881 5.54181L7.41803 3.11667Z" fill="var(--fill-0, white)"/>
</g>
</svg>
